<svg xmlns="http://www.w3.org/2000/svg" width="121.285" height="87.616" viewBox="0 0 121.285 87.616">
  <g id="Group_2" data-name="Group 2" transform="translate(-338.993 -16.05)">
    <path id="Path_2" data-name="Path 2" d="M426.85,56.067a18.445,18.445,0,1,0,33.428,11.569L446.611,54.372l-6.15-5.97L407.119,16.05A29.563,29.563,0,0,0,426.85,56.067Zm13.82,5.92a3.7,3.7,0,1,1,1.091,5.109A3.694,3.694,0,0,1,440.67,61.987Z" fill="#168595"/>
    <path id="Path_3" data-name="Path 3" d="M458.2,96.385a7.266,7.266,0,0,1-7.276,7.281,7.151,7.151,0,0,1-1.866-.245c-.637-.271-1.274-.542-1.906-.813q-2.678-1.136-5.355-2.282-16.233-8.077-32.456-16.162l-.271-.136L396.845,77.91l-23.3-11.664-.391-.2a7.278,7.278,0,1,0-.06,13.214A10.914,10.914,0,0,1,383.556,98.29c-.461.286-.933.562-1.409.828a.306.306,0,0,0-.07.035,29.077,29.077,0,1,1-2.112-52.038l2.147,1.078,17.767,8.9,8.962,4.488v.005l21.7,10.867,5.767,2.889c.01-.025.015-.055.025-.08L449.189,81.7a6.186,6.186,0,0,1-.491.481,10.8,10.8,0,0,1-6.178,2.808c-.246.03-.5.05-.747.06-.151.005-.3.01-.452.01a10.826,10.826,0,0,1-3.776-.671c-.06-.021-.12-.046-.175-.066a10.211,10.211,0,0,0,3.079,3.586,10.091,10.091,0,0,0,2.422,1.269,10.884,10.884,0,0,0,3.646.626c.085,0,.17,0,.25-.005s.131.005.206.005a11.133,11.133,0,0,0,1.84-.155c-.08.05-.16.1-.24.16a7.229,7.229,0,0,1,2.447-.426h.1a7.306,7.306,0,0,1,2.994.687l.391.2a7.266,7.266,0,0,1,3.3,3.771A7.155,7.155,0,0,1,458.2,96.385Z" fill="#168595"/>
    <circle id="Ellipse_2" data-name="Ellipse 2" cx="7.278" cy="7.278" r="7.278" transform="translate(338.993 30.026)" fill="#168595"/>
  </g>
</svg>
