<svg xmlns="http://www.w3.org/2000/svg" xmlns:xlink="http://www.w3.org/1999/xlink" width="899.707" height="899.71" viewBox="0 0 899.707 899.71">
  <defs>
    <clipPath id="clip-path">
      <rect id="Rectangle_3" data-name="Rectangle 3" width="899" height="899" fill="#616161" stroke="#fff" stroke-width="1"/>
    </clipPath>
  </defs>
  <g id="PHOTO" transform="translate(0.354 0.354)">
    <g id="Mask_Group_2" data-name="Mask Group 2" clip-path="url(#clip-path)">
      <g id="Social_tree-rafiki" data-name="Social tree-rafiki" transform="translate(0 107.163)">
        <g id="freepik--background-complete--inject-31" transform="translate(0 0)">
          <rect id="Rectangle_44" data-name="Rectangle 44" width="899" height="0.45" transform="translate(0 588.665)" fill="#e6e6e6"/>
          <rect id="Rectangle_45" data-name="Rectangle 45" width="60.665" height="0.45" transform="translate(111.961 604.506)" fill="#e6e6e6"/>
          <rect id="Rectangle_46" data-name="Rectangle 46" width="35.996" height="0.45" transform="translate(185.823 604.272)" fill="#e6e6e6"/>
          <rect id="Rectangle_47" data-name="Rectangle 47" width="170.432" height="0.45" transform="translate(223.959 616.067)" fill="#e6e6e6"/>
          <rect id="Rectangle_48" data-name="Rectangle 48" width="121.329" height="0.45" transform="translate(456.063 600.478)" fill="#e6e6e6"/>
          <rect id="Rectangle_49" data-name="Rectangle 49" width="108.186" height="0.45" transform="translate(635.593 604.47)" fill="#e6e6e6"/>
          <path id="Path_565" data-name="Path 565" d="M401.213,571.5H54.037a10.267,10.267,0,0,1-10.249-10.267V73.207A10.267,10.267,0,0,1,54.037,63.03H401.213A10.267,10.267,0,0,1,411.48,73.3V561.238A10.267,10.267,0,0,1,401.213,571.5ZM54.037,63.39a9.817,9.817,0,0,0-9.8,9.817V561.238a9.817,9.817,0,0,0,9.8,9.817H401.213a9.835,9.835,0,0,0,9.817-9.817V73.207a9.835,9.835,0,0,0-9.817-9.817Z" transform="translate(24.913 -63.03)" fill="#e6e6e6"/>
          <path id="Path_566" data-name="Path 566" d="M649.117,571.5H301.924a10.285,10.285,0,0,1-10.267-10.267V73.207A10.285,10.285,0,0,1,301.924,63.03H649.117a10.267,10.267,0,0,1,10.231,10.177V561.238A10.267,10.267,0,0,1,649.117,571.5ZM301.924,63.39a9.835,9.835,0,0,0-9.817,9.817V561.238a9.835,9.835,0,0,0,9.817,9.817H649.117a9.835,9.835,0,0,0,9.817-9.817V73.207a9.835,9.835,0,0,0-9.817-9.817Z" transform="translate(165.934 -63.03)" fill="#e6e6e6"/>
          <path id="Path_567" data-name="Path 567" d="M442.777,381.549c-31.915-49.463-28.3,96.319-86.933,31.537C283.8,333.506,180.431,306.824,225.615,367.74s18.3,82.007-95.743,13.809c-82.708-49.463,69.816,98.89,28.049,93.19s-105.129-19.472-51.1,22.457l350.5.144S474.692,430.958,442.777,381.549Z" transform="translate(48.922 91.325)" fill="#f5f5f5"/>
          <path id="Path_568" data-name="Path 568" d="M454.958,519.991H376.978c-40.635-27.995-63.254-102.971-6.1-184.457A284.087,284.087,0,0,1,406.3,294.522C427.934,408.965,521.142,486.045,454.958,519.991Z" transform="translate(191.442 68.674)" fill="#ebebeb"/>
          <path id="Path_569" data-name="Path 569" d="M330.923,498.664H408.9c36.194-20.7,46.838-76.109-23.284-136.342a336.221,336.221,0,0,0-41.965-30.314C340.254,416.6,259.344,473.564,330.923,498.664Z" transform="translate(171.51 90.001)" fill="#ebebeb"/>
          <path id="Path_570" data-name="Path 570" d="M479.708,488.219H415.214c-29.937-17.117-38.747-62.93,19.257-112.771a277.538,277.538,0,0,1,34.7-25.082C471.976,420.345,538.916,467.452,479.708,488.219Z" transform="translate(222.879 100.446)" fill="#ebebeb"/>
          <path id="Path_571" data-name="Path 571" d="M418.29,449.966s1.8-21.4,21.36-32.364a64.259,64.259,0,0,0-6.275,32.364Z" transform="translate(237.98 138.699)" fill="#f5f5f5"/>
          <path id="Path_572" data-name="Path 572" d="M358.8,449.966s-1.8-21.4-21.36-32.364a64.26,64.26,0,0,1,6.275,32.364Z" transform="translate(191.981 138.699)" fill="#f5f5f5"/>
          <path id="Path_573" data-name="Path 573" d="M188.172,449.966s-1.8-21.4-21.36-32.364a64.26,64.26,0,0,1,6.275,32.364Z" transform="translate(94.905 138.699)" fill="#ebebeb"/>
          <path id="Path_574" data-name="Path 574" d="M85.393,454.648S79.1,424.765,49.828,409.374a97.091,97.091,0,0,1,14.51,45.274Z" transform="translate(28.349 134.017)" fill="#fafafa"/>
          <path id="Path_575" data-name="Path 575" d="M514.092,462.354s4.962-43.943-30.728-66.526c10.177,31.861-.234,66.526-.234,66.526Z" transform="translate(274.87 126.311)" fill="#ebebeb"/>
          <path id="Path_576" data-name="Path 576" d="M490.224,457.947s10.069-35.96,46.514-54.371a123.81,123.81,0,0,0-21.216,54.371Z" transform="translate(278.906 130.718)" fill="#ebebeb"/>
          <path id="Path_577" data-name="Path 577" d="M411.07,455.984s1.313-35.96,25.172-48.96c-10.644,18.43-10.033,48.96-10.033,48.96Z" transform="translate(233.872 132.681)" fill="#f5f5f5"/>
          <path id="Path_578" data-name="Path 578" d="M256.383,444.6a23.932,23.932,0,0,1,11.579-17.566,34.772,34.772,0,0,0-3.4,17.566Z" transform="translate(145.865 144.065)" fill="#ebebeb"/>
          <path id="Path_579" data-name="Path 579" d="M260.387,444.6a23.931,23.931,0,0,0-11.579-17.566,34.772,34.772,0,0,1,3.4,17.566Z" transform="translate(141.556 144.065)" fill="#ebebeb"/>
          <path id="Path_580" data-name="Path 580" d="M252.5,447.86s.719-19.472,13.629-26.556c-5.772,10-5.394,26.556-5.394,26.556Z" transform="translate(143.655 140.805)" fill="#ebebeb"/>
          <path id="Path_581" data-name="Path 581" d="M121.739,447.86s1.528-15.535-17.98-26.556c8.019,15.517,2.931,26.556,2.931,26.556Z" transform="translate(59.032 140.805)" fill="#ebebeb"/>
          <path id="Path_582" data-name="Path 582" d="M115.574,449.966s1.8-21.4,21.36-32.364a64.26,64.26,0,0,0-6.275,32.364Z" transform="translate(65.754 138.699)" fill="#ebebeb"/>
          <path id="Path_583" data-name="Path 583" d="M131.509,455.984s-1.313-35.96-25.172-48.96c10.644,18.43,10.033,48.96,10.033,48.96Z" transform="translate(60.499 132.681)" fill="#ebebeb"/>
          <path id="Path_584" data-name="Path 584" d="M61.756,232.918c6.491-8.2,19.562-14.546,29.218-14.15a10.788,10.788,0,0,1,7.785,2.949c17.638-10.213,37.938-16.506,54.7-15.8,8.523.342,15.157,2.445,19.778,5.879,18.933-15.427,43.152-26.359,60.593-26.359,9.943,0,16.182,3.6,18.34,9.439,19.436-10.339,39.394-16.7,55.5-16.7,25.657,0,34,16.182,23.5,38.855,4.207,4.261,24.453,10.249,23.626,17.4H60.623C60.983,233.925,61.343,233.439,61.756,232.918Z" transform="translate(34.491 2.476)" fill="#f5f5f5"/>
          <path id="Path_585" data-name="Path 585" d="M259.014,146.645c4.765.234,8.091,1.978,9.925,4.8,24.021-16.649,51.117-26.862,72.927-25.729,11.148.539,19.616,3.992,25.262,9.583h0c26.107-25.172,58.669-42.846,81.593-42.846,13.036,0,20.8,5.754,23.1,15.355,26.359-16.883,53.041-27.222,74.114-27.222,26.107,0,37.65,15.894,34.054,40.365,12.586-7.192,24.938-11.309,35.007-11.309,13.953,0,20.479,8.055,19.346,20.659a30.117,30.117,0,0,1,3.6.2c21.288,2.086,29.451,18.394,19.221,37H221.04C230.588,155.222,247.04,146.034,259.014,146.645Z" transform="translate(125.758 -53.041)" fill="#f5f5f5"/>
          <path id="Path_586" data-name="Path 586" d="M391.69,238.611a5.736,5.736,0,0,1,4.837,2.319c11.723-8.109,24.92-13.089,35.564-12.586a18.25,18.25,0,0,1,12.316,4.675h0c12.73-12.226,28.606-20.893,39.772-20.893,6.365,0,10.141,2.8,11.273,7.48,12.856-8.217,25.855-13.269,36.122-13.269,12.748,0,18.358,7.749,16.614,19.778,6.131-3.47,12.155-5.52,17.063-5.52,6.8,0,10,3.92,9.44,10.069h1.8c10.374,1.025,14.384,8.99,9.35,17.98H373.206C377.863,242.765,385.882,238.288,391.69,238.611Z" transform="translate(212.33 18.503)" fill="#f5f5f5"/>
        </g>
        <g id="freepik--Shadow--inject-31" transform="translate(100.886 629.156)">
          <ellipse id="Ellipse_48" data-name="Ellipse 48" cx="348.614" cy="20.353" rx="348.614" ry="20.353" transform="translate(0 0)" fill="#f5f5f5"/>
        </g>
        <g id="freepik--social-tree--inject-31" transform="translate(159.388 18.332)">
          <circle id="Ellipse_49" data-name="Ellipse 49" cx="18.232" cy="18.232" r="18.232" transform="translate(67.939 72.76) rotate(-45)" fill="#1c96a5"/>
          <circle id="Ellipse_50" data-name="Ellipse 50" cx="18.232" cy="18.232" r="18.232" transform="translate(67.939 72.76) rotate(-45)" fill="#fff" opacity="0.1"/>
          <circle id="Ellipse_51" data-name="Ellipse 51" cx="18.232" cy="18.232" r="18.232" transform="matrix(0.972, -0.237, 0.237, 0.972, 100.091, 318.127)" fill="#1c96a5"/>
          <circle id="Ellipse_52" data-name="Ellipse 52" cx="18.232" cy="18.232" r="18.232" transform="matrix(0.972, -0.237, 0.237, 0.972, 100.091, 318.127)" fill="#1c96a5" opacity="0.2"/>
          <g id="Group_6" data-name="Group 6" transform="translate(100.091 309.497)" opacity="0.1">
            <circle id="Ellipse_53" data-name="Ellipse 53" cx="18.232" cy="18.232" r="18.232" transform="matrix(0.972, -0.237, 0.237, 0.972, 0, 8.63)" fill="#fff"/>
            <circle id="Ellipse_54" data-name="Ellipse 54" cx="18.232" cy="18.232" r="18.232" transform="matrix(0.972, -0.237, 0.237, 0.972, 0, 8.63)" fill="#fff" opacity="0.2"/>
          </g>
          <circle id="Ellipse_55" data-name="Ellipse 55" cx="22.781" cy="22.781" r="22.781" transform="translate(353.728 72.766) rotate(-45)" fill="#1c96a5"/>
          <circle id="Ellipse_56" data-name="Ellipse 56" cx="22.781" cy="22.781" r="22.781" transform="translate(353.728 72.766) rotate(-45)" fill="#1c96a5" opacity="0.2"/>
          <g id="Group_7" data-name="Group 7" transform="translate(353.728 40.55)" opacity="0.1">
            <circle id="Ellipse_57" data-name="Ellipse 57" cx="22.781" cy="22.781" r="22.781" transform="translate(0 32.217) rotate(-45)" fill="#fff"/>
            <circle id="Ellipse_58" data-name="Ellipse 58" cx="22.781" cy="22.781" r="22.781" transform="translate(0 32.217) rotate(-45)" fill="#fff" opacity="0.2"/>
          </g>
          <circle id="Ellipse_59" data-name="Ellipse 59" cx="20.515" cy="20.515" r="20.515" transform="translate(462.325 54.505)" fill="#1c96a5"/>
          <circle id="Ellipse_60" data-name="Ellipse 60" cx="20.515" cy="20.515" r="20.515" transform="translate(462.325 54.505)" fill="#1c96a5" opacity="0.2"/>
          <g id="Group_8" data-name="Group 8" transform="translate(462.325 54.505)" opacity="0.3">
            <circle id="Ellipse_61" data-name="Ellipse 61" cx="20.515" cy="20.515" r="20.515" fill="#fff"/>
            <circle id="Ellipse_62" data-name="Ellipse 62" cx="20.515" cy="20.515" r="20.515" fill="#fff" opacity="0.2"/>
          </g>
          <circle id="Ellipse_63" data-name="Ellipse 63" cx="30.188" cy="30.188" r="30.188" transform="translate(88.368 121.058) rotate(-29.29)" fill="#1c96a5"/>
          <circle id="Ellipse_64" data-name="Ellipse 64" cx="30.188" cy="30.188" r="30.188" transform="translate(88.368 121.058) rotate(-29.29)" fill="#1c96a5" opacity="0.2"/>
          <g id="Group_9" data-name="Group 9" transform="translate(88.368 91.519)" opacity="0.3">
            <circle id="Ellipse_65" data-name="Ellipse 65" cx="30.188" cy="30.188" r="30.188" transform="translate(0 29.538) rotate(-29.29)" fill="#fff"/>
            <circle id="Ellipse_66" data-name="Ellipse 66" cx="30.188" cy="30.188" r="30.188" transform="translate(0 29.538) rotate(-29.29)" fill="#fff" opacity="0.2"/>
          </g>
          <circle id="Ellipse_67" data-name="Ellipse 67" cx="18.232" cy="18.232" r="18.232" transform="translate(203.124 35.326) rotate(-75.65)" fill="#1c96a5"/>
          <circle id="Ellipse_68" data-name="Ellipse 68" cx="18.232" cy="18.232" r="18.232" transform="translate(203.124 35.326) rotate(-75.65)" fill="#1c96a5" opacity="0.2"/>
          <g id="Group_10" data-name="Group 10" transform="translate(203.124)" opacity="0.3">
            <circle id="Ellipse_69" data-name="Ellipse 69" cx="18.232" cy="18.232" r="18.232" transform="translate(0 35.326) rotate(-75.65)" fill="#fff"/>
            <circle id="Ellipse_70" data-name="Ellipse 70" cx="18.232" cy="18.232" r="18.232" transform="translate(0 35.326) rotate(-75.65)" fill="#fff" opacity="0.2"/>
          </g>
          <circle id="Ellipse_71" data-name="Ellipse 71" cx="30.189" cy="30.189" r="30.189" transform="translate(56.599 223.133) rotate(-45)" fill="#1c96a5"/>
          <circle id="Ellipse_72" data-name="Ellipse 72" cx="30.189" cy="30.189" r="30.189" transform="translate(56.599 223.133) rotate(-45)" fill="#fff" opacity="0.1"/>
          <circle id="Ellipse_73" data-name="Ellipse 73" cx="18.232" cy="18.232" r="18.232" transform="translate(323.123 10.633)" fill="#1c96a5"/>
          <circle id="Ellipse_74" data-name="Ellipse 74" cx="18.232" cy="18.232" r="18.232" transform="translate(323.123 10.633)" fill="#fff" opacity="0.1"/>
          <circle id="Ellipse_75" data-name="Ellipse 75" cx="30.188" cy="30.188" r="30.188" transform="matrix(0.239, -0.971, 0.971, 0.239, 250.229, 81.15)" fill="#1c96a5"/>
          <circle id="Ellipse_76" data-name="Ellipse 76" cx="30.188" cy="30.188" r="30.188" transform="matrix(0.239, -0.971, 0.971, 0.239, 250.229, 81.15)" fill="#fff" opacity="0.1"/>
          <circle id="Ellipse_77" data-name="Ellipse 77" cx="30.188" cy="30.188" r="30.188" transform="translate(18.73 337.816) rotate(-76.81)" fill="#1c96a5"/>
          <circle id="Ellipse_78" data-name="Ellipse 78" cx="30.188" cy="30.188" r="30.188" transform="translate(18.73 337.816) rotate(-76.81)" opacity="0.4"/>
          <circle id="Ellipse_79" data-name="Ellipse 79" cx="18.232" cy="18.232" r="18.232" transform="translate(410.839 51.425) rotate(-76.78)" fill="#1c96a5"/>
          <circle id="Ellipse_80" data-name="Ellipse 80" cx="18.232" cy="18.232" r="18.232" transform="translate(410.839 51.425) rotate(-76.78)" opacity="0.4"/>
          <circle id="Ellipse_81" data-name="Ellipse 81" cx="22.781" cy="22.781" r="22.781" transform="translate(17.112 148.396) rotate(-45)" fill="#1c96a5"/>
          <circle id="Ellipse_82" data-name="Ellipse 82" cx="22.781" cy="22.781" r="22.781" transform="translate(17.112 148.396) rotate(-45)" opacity="0.4"/>
          <path id="Path_587" data-name="Path 587" d="M157.355,286.159a12.964,12.964,0,1,0-19.329-1.115c-.881.683-1.8,1.385-2.571,2.1-1.2,1.025-2.391,2.086-3.6,3.146s-2.319,2.158-3.452,3.272l-1.8,1.654a3.037,3.037,0,0,0-.719.971,2.158,2.158,0,0,0-.2.629,2.571,2.571,0,0,0,0,.773,2,2,0,0,0,1.8,1.8,3.6,3.6,0,0,0,.791,0,3.7,3.7,0,0,0,.629-.216,3.165,3.165,0,0,0,.953-.719l1.672-1.69c1.1-1.133,2.176-2.3,3.254-3.452s2.122-2.373,3.147-3.6c.719-.845,1.42-1.69,2.1-2.553a12.964,12.964,0,0,0,17.315-1.007Zm-16.4-1.924a10.249,10.249,0,1,1,14.384,0A10.249,10.249,0,0,1,140.957,284.235Z" transform="translate(-87.894 32.993)" fill="#fff"/>
          <path id="Path_588" data-name="Path 588" d="M422.786,129.719A8.576,8.576,0,1,0,410,128.982c-.575.45-1.133.9-1.69,1.384s-1.6,1.366-2.373,2.068l-2.283,2.158c-.378.36-.737.737-1.115,1.115a1.951,1.951,0,0,0-.647,1.564,1.313,1.313,0,0,0,1.2,1.2,1.617,1.617,0,0,0,.521,0l.414-.144a2.05,2.05,0,0,0,.629-.467l1.1-1.133c.737-.737,1.456-1.51,2.158-2.283s1.4-1.546,2.086-2.355.935-1.115,1.384-1.69a8.594,8.594,0,0,0,11.4-.683ZM412,128.425a6.675,6.675,0,1,1-.072,0Z" transform="translate(69.26 -51.751)" fill="#fff"/>
          <path id="Path_589" data-name="Path 589" d="M173.827,127.769a7.983,7.983,0,1,0-11.9-.683c-.539.414-1.061.845-1.582,1.295s-1.474,1.277-2.194,1.942-1.438,1.331-2.14,2c-.342.342-.683.7-1.043,1.043a2.014,2.014,0,0,0-.432.575,1.456,1.456,0,0,0-.126.4,1.366,1.366,0,0,0,0,.485,1.187,1.187,0,0,0,1.115,1.115,1.366,1.366,0,0,0,.485,0,1.456,1.456,0,0,0,.4-.126,2.014,2.014,0,0,0,.575-.432l1.043-1.043c.665-.7,1.349-1.42,2-2.14s1.313-1.456,1.942-2.194.881-1.043,1.295-1.582A7.965,7.965,0,0,0,173.827,127.769Zm-10.1-1.187a6.311,6.311,0,1,1,4.495,1.881,6.311,6.311,0,0,1-4.495-1.881Z" transform="translate(-71.552 -52.282)" fill="#fff"/>
          <path id="Path_590" data-name="Path 590" d="M181.9,215.416a.935.935,0,0,0-.5-.989,15.679,15.679,0,0,0-6.311-1.241,14.042,14.042,0,0,0-14.006,14.024c0,5.16,3.452,7.857,6.868,7.857a8.99,8.99,0,0,0,7.354-3.6,5.016,5.016,0,0,0,1.169,2.086,4.927,4.927,0,0,0,3.6,1.456c5.394,0,10.788-4.837,10.788-14.06a16.182,16.182,0,0,0-16.991-16.9c-12.029,0-21.109,9.529-21.109,22.151,0,10.536,7.426,18.178,17.674,18.178a20.964,20.964,0,0,0,10.267-2.319.9.9,0,0,0,.414-1.115l-.881-2.373a.917.917,0,0,0-.521-.539.863.863,0,0,0-.755,0,16.6,16.6,0,0,1-7.911,1.8c-7.983,0-13.341-5.646-13.341-14.042,0-10.141,6.617-17.477,15.715-17.477,7.713,0,12.586,4.927,12.586,12.874a11.4,11.4,0,0,1-2.679,8.109,3.6,3.6,0,0,1-2.373,1.133.845.845,0,0,1-.719-.324c-.306-.4-.737-1.528-.09-4.819Zm-7.48,2.5a9.111,9.111,0,0,1,1.8.162l-1.007,5.394c-.557,3.129-3.254,6.778-5.879,6.778s-2.715-2.032-2.715-3.272C166.613,222.069,170.209,217.916,174.416,217.916Z" transform="translate(-72.483 -1.142)" fill="#fff"/>
          <path id="Path_591" data-name="Path 591" d="M329.483,92.186a.521.521,0,0,0-.306-.593,9.349,9.349,0,0,0-3.812-.755,8.5,8.5,0,0,0-8.487,8.487,4.333,4.333,0,0,0,4.153,4.765,5.394,5.394,0,0,0,4.459-2.14,3.037,3.037,0,0,0,.7,1.259,2.967,2.967,0,0,0,2.194.881c3.236,0,6.509-2.931,6.509-8.523a9.835,9.835,0,0,0-10.3-10.231,12.82,12.82,0,0,0-12.784,13.413,10.5,10.5,0,0,0,10.644,10.932,12.586,12.586,0,0,0,6.221-1.4.539.539,0,0,0,.27-.665l-.539-1.438a.521.521,0,0,0-.324-.324.5.5,0,0,0-.45,0,10.177,10.177,0,0,1-4.8,1.1,7.857,7.857,0,0,1-8.073-8.5c0-6.131,4.01-10.572,9.511-10.572a7.192,7.192,0,0,1,7.57,7.785,6.9,6.9,0,0,1-1.618,4.909,2.068,2.068,0,0,1-1.438.683.5.5,0,0,1-.432-.18c-.2-.234-.449-.935,0-2.931ZM324.97,93.7a5,5,0,0,1,1.043.108l-.611,3.29c-.342,1.906-1.96,4.117-3.6,4.117s-1.672-1.259-1.672-2a5.25,5.25,0,0,1,4.837-5.52Z" transform="translate(18.003 -68.679)" fill="#fff"/>
          <circle id="Ellipse_83" data-name="Ellipse 83" cx="30.189" cy="30.189" r="30.189" transform="matrix(0.231, -0.973, 0.973, 0.231, 417.49, 152.475)" fill="#1c96a5"/>
          <circle id="Ellipse_84" data-name="Ellipse 84" cx="30.189" cy="30.189" r="30.189" transform="matrix(0.231, -0.973, 0.973, 0.231, 417.49, 152.475)" opacity="0.5"/>
          <path id="Path_592" data-name="Path 592" d="M407.9,156.129a.881.881,0,0,0-.5-.989,15.606,15.606,0,0,0-6.311-1.241,14.042,14.042,0,0,0-14.025,14.024c0,5.178,3.47,7.875,6.886,7.875a8.99,8.99,0,0,0,7.372-3.6,4.819,4.819,0,0,0,1.151,2.086,4.927,4.927,0,0,0,3.6,1.456c5.394,0,10.788-4.837,10.788-14.078a16.182,16.182,0,0,0-17.009-16.919c-12.047,0-21.127,9.547-21.127,22.187,0,10.536,7.426,18.178,17.692,18.178a20.964,20.964,0,0,0,10.267-2.319.863.863,0,0,0,.432-1.1l-.881-2.391a.863.863,0,0,0-.539-.521.917.917,0,0,0-.755,0,16.559,16.559,0,0,1-7.929,1.8c-7.965,0-13.341-5.646-13.341-14.06,0-10.141,6.617-17.495,15.733-17.495,7.713,0,12.586,4.945,12.586,12.892a11.525,11.525,0,0,1-2.679,8.127,3.452,3.452,0,0,1-2.391,1.115.845.845,0,0,1-.719-.306c-.306-.4-.737-1.546,0-4.837Zm-7.48,2.463a9.112,9.112,0,0,1,1.8.162l-1.007,5.394c-.557,3.147-3.254,6.8-5.879,6.8s-2.769-2.068-2.769-3.308C392.509,162.782,396.141,158.592,400.421,158.592Z" transform="translate(56.079 -34.883)" fill="#fff"/>
          <path id="Path_593" data-name="Path 593" d="M209.731,166.107V166a17.583,17.583,0,0,0-.216-2.895,18.843,18.843,0,0,0-18.16-15.786h-.935a19.885,19.885,0,0,0-2.5.234,18.807,18.807,0,0,0-15.768,18.465v.216a17.583,17.583,0,0,0,.216,2.895,18.861,18.861,0,0,0,18.519,15.8h.09a18.843,18.843,0,0,0,18.735-18.825Zm-4.944,7.444H201.5a28.065,28.065,0,0,0,.881-5.915h4.207a15.625,15.625,0,0,1-1.8,5.844Zm-27.743-14.869h3.29a29.311,29.311,0,0,0-.863,5.915h-4.117a15.517,15.517,0,0,1,1.69-5.987Zm22.205,4.8V164.6H192.38v-5.915h5.861a24.687,24.687,0,0,1,1.007,4.729Zm-6.8-7.857v-4.98a5.231,5.231,0,0,1,1.259.647,11.111,11.111,0,0,1,3.434,4.333Zm-3.057-4.98v4.98h-4.711a9.3,9.3,0,0,1,4.711-5.052Zm0,8.037V164.6h-6.85a26.4,26.4,0,0,1,1.007-5.915Zm-14.024,9.961a9.582,9.582,0,0,1-.108-1.007h4.207a7.171,7.171,0,0,0,.09,1.384,27.361,27.361,0,0,0,.791,4.531h-3.308a15.552,15.552,0,0,1-1.69-4.98Zm7.192.108v-1.115h6.868v5.915H183.57a24.691,24.691,0,0,1-1.025-4.873Zm6.8,7.857v4.962a4.856,4.856,0,0,1-1.259-.629,11.093,11.093,0,0,1-3.434-4.333Zm3.057,4.962v-5.034h4.711a9.26,9.26,0,0,1-4.675,4.962Zm0-8.019v-5.915h6.85a25.425,25.425,0,0,1-.989,5.915Zm9.925-8.99a7.077,7.077,0,0,0-.09-1.384,29,29,0,0,0-.791-4.531h3.308a15.858,15.858,0,0,1,1.672,4.909,3.207,3.207,0,0,0,.108,1.007Zm.288-8.99h-2.1a20.463,20.463,0,0,0-1.546-3.075c.4.252.809.5,1.187.791a15.338,15.338,0,0,1,2.5,2.266Zm-19.778-3.057a21.12,21.12,0,0,0-1.546,3.057h-2.176a16.183,16.183,0,0,1,3.758-3.075Zm-3.7,24.039h2.176a18.948,18.948,0,0,0,1.564,3.075,15.8,15.8,0,0,1-3.7-3.093Zm19.778,3.057a21.124,21.124,0,0,0,1.546-3.057h2.158a16.074,16.074,0,0,1-3.668,3.039Z" transform="translate(-61.445 -33.408)" fill="#fff"/>
          <path id="Path_594" data-name="Path 594" d="M395.765,103.134h0a16.071,16.071,0,0,0-.144-1.8A12.137,12.137,0,0,0,383.9,91.141h-.611a12.3,12.3,0,0,0-1.6.144,12.137,12.137,0,0,0-10.177,11.921h0a11.054,11.054,0,0,0,.144,1.8,12.154,12.154,0,0,0,11.939,10.357h0a11.579,11.579,0,0,0,1.924-.162,12.154,12.154,0,0,0,10.195-11.9Zm-3.182,4.8h-2.122a18.552,18.552,0,0,0,.557-3.83h2.715a10,10,0,0,1-1.151,3.83Zm-17.98-9.6h2.122a19.669,19.669,0,0,0-.557,3.812h-2.643a10,10,0,0,1,1.151-3.812Zm14.384,3.093v.719h-4.423V98.333h3.776a16.179,16.179,0,0,1,.665,3.093Zm-4.387-5.07V93.137a3.6,3.6,0,0,1,.809.432,7.084,7.084,0,0,1,2.212,2.787Zm-1.978-3.2v3.2h-3.039a5.97,5.97,0,0,1,3.057-3.2Zm0,5.178v3.812H378.2a16.886,16.886,0,0,1,.647-3.812Zm-8.99,6.419V104.1h2.715v.9a18.8,18.8,0,0,0,.521,2.931h-2.14a9.943,9.943,0,0,1-1.133-3.182Zm4.675,0v-.719h4.423v3.83h-3.776a15.38,15.38,0,0,1-.683-3.039Zm4.333,5.214v3.218a4.314,4.314,0,0,1-.809-.414,7.191,7.191,0,0,1-2.212-2.8Zm1.978,3.218v-3.218h3.039a6,6,0,0,1-3.039,3.146Zm0-5.178v-3.9h4.423a17.048,17.048,0,0,1-.629,3.83Zm6.347-5.861v-.9a20.489,20.489,0,0,0-.5-2.913h2.122a9.565,9.565,0,0,1,1.079,3.165v.647Zm.2-5.79h-1.42a12.688,12.688,0,0,0-.989-1.978l.773.5a10.639,10.639,0,0,1,1.69,1.474ZM378.379,94.4a12.584,12.584,0,0,0-1.007,1.96h-1.4a10.1,10.1,0,0,1,2.409-1.96Zm-2.319,15.571h1.4a12.948,12.948,0,0,0,1.007,2,10.248,10.248,0,0,1-2.409-2Zm12.766,1.978a13.53,13.53,0,0,0,.989-1.978h1.4a10.161,10.161,0,0,1-2.391,1.906Z" transform="translate(51.978 -65.369)" fill="#fff"/>
          <circle id="Ellipse_85" data-name="Ellipse 85" cx="30.189" cy="30.189" r="30.189" transform="matrix(0.231, -0.973, 0.973, 0.231, 500.87, 243.018)" fill="#1c96a5"/>
          <path id="Path_595" data-name="Path 595" d="M465.335,206.83H436.909a5.394,5.394,0,0,0-5.394,5.394V226.9a5.394,5.394,0,0,0,5.394,5.394h20.857l-.144,5.124,5.268-5.124h2.445a5.394,5.394,0,0,0,5.394-5.394V212.26a5.394,5.394,0,0,0-5.394-5.43Zm-29.074,6.329a1.528,1.528,0,0,1,1.528-1.51h6.527a1.51,1.51,0,1,1,0,3.021h-6.581A1.528,1.528,0,0,1,436.262,213.159Zm27.455,14.2H452.408a1.51,1.51,0,1,1,0-3h11.309a1.51,1.51,0,1,1,0,3Zm0-6.347H439.3a1.51,1.51,0,0,1,0-3h24.417a1.51,1.51,0,1,1,0,3Zm0-6.347H449.333a1.51,1.51,0,0,1,0-3.021h14.384a1.51,1.51,0,1,1,0,3.021Z" transform="translate(86.116 0.451)" fill="#fff"/>
          <path id="Path_596" data-name="Path 596" d="M148.334,163.488H127.945a3.92,3.92,0,0,0-3.9,3.9v10.536a3.92,3.92,0,0,0,3.9,3.9H142.9l-.108,3.6,3.776-3.6h1.8a3.92,3.92,0,0,0,3.9-3.9V167.39a3.92,3.92,0,0,0-3.938-3.9Zm-20.857,4.495a1.1,1.1,0,0,1,1.1-1.1h4.693a1.1,1.1,0,0,1,0,2.176h-4.693a1.1,1.1,0,0,1-1.1-1.079Zm19.778,10.177h-8.127a1.079,1.079,0,1,1,0-2.14h8.127a1.079,1.079,0,1,1,0,2.14Zm0-4.549H129.743a1.079,1.079,0,1,1,0-2.158h17.513a1.079,1.079,0,0,1,0,2.158Zm0-4.549H136.881a1.1,1.1,0,0,1,0-2.176h10.374a1.1,1.1,0,0,1,0,2.176Z" transform="translate(-88.815 -24.208)" fill="#fff"/>
          <path id="Path_597" data-name="Path 597" d="M257.6,83.956H241.074a3.182,3.182,0,0,0-3.164,3.129v8.523a3.182,3.182,0,0,0,3.164,3.164h12.119v2.985l3.075-2.985h1.42a3.182,3.182,0,0,0,3.164-3.164V87.085a3.183,3.183,0,0,0-3.254-3.129Zm-16.9,3.6a.881.881,0,0,1,.881-.881h3.812a.863.863,0,0,1,.863.881.881.881,0,0,1-.863.881h-3.812a.9.9,0,0,1-.881-.845Zm15.912,8.289h-6.581a.9.9,0,0,1,0-1.8h6.581a.9.9,0,1,1,0,1.8Zm0-3.686H242.4a.881.881,0,0,1-.863-.881.863.863,0,0,1,.863-.863h14.2a.845.845,0,0,1,.863.863.863.863,0,0,1-.863.881Zm0-3.6h-8.415a.881.881,0,0,1-.863-.881.863.863,0,0,1,.863-.881h8.415a.863.863,0,0,1,.863.881.881.881,0,0,1-.863.791Z" transform="translate(-24.033 -69.457)" fill="#fff"/>
          <circle id="Ellipse_86" data-name="Ellipse 86" cx="22.781" cy="22.781" r="22.781" transform="translate(159.074 72.752) rotate(-45)" fill="#1c96a5"/>
          <circle id="Ellipse_87" data-name="Ellipse 87" cx="22.781" cy="22.781" r="22.781" transform="translate(159.074 72.752) rotate(-45)" opacity="0.4"/>
          <path id="Path_598" data-name="Path 598" d="M231.784,121.406c-5.394-1.636-8.756-7.516-8.756-7.516s-1.8-.108-1.8,1.438a7.678,7.678,0,0,0,2.247,5.61l-2.589-.144a8.847,8.847,0,0,0-2.751.288l-.863.234a2.859,2.859,0,0,0-2.014,3.434l1.241,5.034a6.257,6.257,0,0,0,7.012,4.729c2.643-.378,6.76-.989,7.462-1.115h0l1.888-.162.647-11.309Z" transform="translate(-36.966 -52.427)" fill="#fff"/>
          <rect id="Rectangle_50" data-name="Rectangle 50" width="9.332" height="14.923" rx="0.653" transform="translate(194.998 67.414)" fill="#1c96a5"/>
          <rect id="Rectangle_51" data-name="Rectangle 51" width="9.332" height="14.923" rx="0.653" transform="translate(194.998 67.414)" fill="#fff" opacity="0.4"/>
          <path id="Path_599" data-name="Path 599" d="M302.965,104.6H278.081a4.567,4.567,0,0,0-4.531,4.531v15.283a4.549,4.549,0,0,0,4.531,4.531h24.884a4.531,4.531,0,0,0,4.531-4.531V109.126a4.549,4.549,0,0,0-4.531-4.531Zm-16.4,18.573V110.385l11.058,6.311Z" transform="translate(-3.755 -57.714)" fill="#fff"/>
          <circle id="Ellipse_88" data-name="Ellipse 88" cx="18.232" cy="18.232" r="18.232" transform="translate(515.312 134.695)" fill="#1c96a5"/>
          <circle id="Ellipse_89" data-name="Ellipse 89" cx="18.232" cy="18.232" r="18.232" transform="translate(515.312 134.695)" opacity="0.2"/>
          <path id="Path_600" data-name="Path 600" d="M453.162,167.476h-15.1a2.769,2.769,0,0,0-2.751,2.751v9.278a2.769,2.769,0,0,0,2.751,2.751h15.1a2.769,2.769,0,0,0,2.751-2.751v-9.278A2.769,2.769,0,0,0,453.162,167.476ZM443.2,178.75V171l6.707,3.866Z" transform="translate(88.274 -21.939)" fill="#fff"/>
          <path id="Path_601" data-name="Path 601" d="M190.722,281.3h-15.1a2.751,2.751,0,0,0-2.733,2.751v9.278a2.733,2.733,0,0,0,2.733,2.733h15.1a2.751,2.751,0,0,0,2.751-2.733v-9.26a2.769,2.769,0,0,0-2.751-2.769Zm-9.961,11.273V284.8l6.725,3.884Z" transform="translate(-61.027 42.817)" fill="#fff"/>
          <circle id="Ellipse_90" data-name="Ellipse 90" cx="22.781" cy="22.781" r="22.781" transform="translate(432.537 230.534) rotate(-45)" fill="#1c96a5"/>
          <circle id="Ellipse_91" data-name="Ellipse 91" cx="22.781" cy="22.781" r="22.781" transform="translate(432.537 230.534) rotate(-45)" fill="#fff" opacity="0.2"/>
          <path id="Path_602" data-name="Path 602" d="M402.727,212.87a13.629,13.629,0,0,0-3.111,26.88l3.111,3.956,3.111-3.956h0a13.611,13.611,0,0,0-3.111-26.88Zm0,19.293a5.664,5.664,0,1,1,4.023-1.659,5.682,5.682,0,0,1-4.023,1.659Z" transform="translate(62.025 3.886)" fill="#fff"/>
          <path id="Path_603" data-name="Path 603" d="M352.65,112.311a13.629,13.629,0,0,0-3.11,26.97l3.111,3.956,3.057-3.956h0a13.611,13.611,0,0,0-3.057-26.97Zm0,19.293a2.36,2.36,0,1,1,0,.072Z" transform="translate(33.296 -53.33)" fill="#fff"/>
          <path id="Path_604" data-name="Path 604" d="M634.96,313.828c-98.387-4.909-161.37,30.818-199.362,69.655C480.89,279.918,586.72,213.32,586.72,213.32c-87.509,22.727-137.547,71.722-165.812,119.117,32.238-115.252,114.335-208.352,114.335-208.352-75.516,48.546-112,110.811-129.636,164.733,7.588-120.664,40.006-176.51,40.006-176.51s-60.467,20.749-66.31,196.935c-5.825-176.114-66.292-196.935-66.292-196.935S345.374,168.046,353,288.746c-17.638-53.94-54.174-116.241-129.618-164.733,0,0,82.079,93.1,114.335,208.352-28.265-47.4-78.3-96.391-165.812-119.117,0,0,105.83,66.526,151.032,170.163-37.992-38.837-100.976-74.563-199.362-69.655,0,0,229.119,42.685,217.774,231.2-3.6,60.808-17.369,100.688-27.707,139.471H437.846c3.6-41.138-11.363-98.89-19.4-141.485C392.716,360.935,634.96,313.828,634.96,313.828Z" transform="translate(-89.083 -53.326)" fill="#1c96a5"/>
          <path id="Path_605" data-name="Path 605" d="M634.96,313.828c-98.387-4.909-161.37,30.818-199.362,69.655C480.89,279.918,586.72,213.32,586.72,213.32c-87.509,22.727-137.547,71.722-165.812,119.117,32.238-115.252,114.335-208.352,114.335-208.352-75.516,48.546-112,110.811-129.636,164.733,7.588-120.664,40.006-176.51,40.006-176.51s-60.467,20.749-66.31,196.935c-5.825-176.114-66.292-196.935-66.292-196.935S345.374,168.046,353,288.746c-17.638-53.94-54.174-116.241-129.618-164.733,0,0,82.079,93.1,114.335,208.352-28.265-47.4-78.3-96.391-165.812-119.117,0,0,105.83,66.526,151.032,170.163-37.992-38.837-100.976-74.563-199.362-69.655,0,0,229.119,42.685,217.774,231.2-3.6,60.808-17.369,100.688-27.707,139.471H437.846c3.6-41.138-11.363-98.89-19.4-141.485C392.716,360.935,634.96,313.828,634.96,313.828Z" transform="translate(-89.083 -53.326)" fill="#fff" opacity="0.5"/>
          <circle id="Ellipse_92" data-name="Ellipse 92" cx="30.189" cy="30.189" r="30.189" transform="translate(470.333 323.95) rotate(-45)" fill="#1c96a5"/>
          <circle id="Ellipse_93" data-name="Ellipse 93" cx="30.189" cy="30.189" r="30.189" transform="translate(470.333 323.95) rotate(-45)" fill="#fff" opacity="0.5"/>
          <path id="Path_606" data-name="Path 606" d="M439.866,281.489c-7.336-2.248-11.885-10.231-11.885-10.231s-2.319-.126-2.427,1.978a10.339,10.339,0,0,0,3.039,7.552l-3.6-.2a11.435,11.435,0,0,0-3.74.4l-1.169.306a3.9,3.9,0,0,0-2.733,4.657l1.69,6.85a8.5,8.5,0,0,0,9.511,6.419c3.6-.521,9.188-1.331,10.159-1.51h0l2.553-.216.881-15.373Z" transform="translate(77.999 37.105)" fill="#fff"/>
          <rect id="Rectangle_52" data-name="Rectangle 52" width="12.676" height="20.263" rx="0.894" transform="translate(518.063 316.473)" fill="#1c96a5"/>
          <rect id="Rectangle_53" data-name="Rectangle 53" width="12.676" height="20.263" rx="0.894" transform="translate(518.063 316.473)" opacity="0.3"/>
          <circle id="Ellipse_94" data-name="Ellipse 94" cx="22.781" cy="22.781" r="22.781" transform="matrix(0.231, -0.973, 0.973, 0.231, 0, 244.951)" fill="#1c96a5"/>
          <circle id="Ellipse_95" data-name="Ellipse 95" cx="22.781" cy="22.781" r="22.781" transform="matrix(0.231, -0.973, 0.973, 0.231, 0, 244.951)" fill="#fff" opacity="0.1"/>
          <path id="Path_607" data-name="Path 607" d="M126.792,220.358c-5.394-1.654-8.738-7.534-8.738-7.534s-1.8-.09-1.8,1.456a7.641,7.641,0,0,0,2.247,5.61l-2.589-.144a8.288,8.288,0,0,0-2.751.288l-.863.234a2.841,2.841,0,0,0-2.014,3.416l1.241,5.052a6.239,6.239,0,0,0,2.823,3.866,6.347,6.347,0,0,0,4.189.863c2.643-.4,6.76-.989,7.462-1.115h0l1.8-.162.629-11.327Z" transform="translate(-96.689 3.86)" fill="#fff"/>
          <rect id="Rectangle_54" data-name="Rectangle 54" width="9.332" height="14.923" rx="0.653" transform="translate(30.265 222.653)" fill="#1c96a5"/>
          <rect id="Rectangle_55" data-name="Rectangle 55" width="9.332" height="14.923" rx="0.653" transform="translate(30.265 222.653)" opacity="0.4"/>
        </g>
        <g id="freepik--Character--inject-31" transform="translate(237.462 382.34)">
          <path id="Path_608" data-name="Path 608" d="M267.311,390.826c-.288,1.51-.521,2.589-.809,3.848l-.917,3.6c-.629,2.373-1.295,4.693-2,7.012-1.456,4.6-3.039,9.152-4.8,13.611s-3.6,8.846-5.556,13.2c-.971,2.176-2.014,4.333-3.057,6.473l-.791,1.6-.432.9c-.234.45-.449.9-.7,1.295a21.031,21.031,0,0,1-3.38,4.369,29.628,29.628,0,0,1-7.7,5.394,49.187,49.187,0,0,1-7.659,3,82.987,82.987,0,0,1-14.887,2.895,139.268,139.268,0,0,1-28.966,0l.162-9.08c4.387-.468,8.99-.971,13.413-1.8s8.864-1.51,13.143-2.5a83.072,83.072,0,0,0,12.172-3.776,22.4,22.4,0,0,0,8.54-5.394,4.892,4.892,0,0,0,.773-1.2l.989-2.535c.827-2.1,1.618-4.225,2.427-6.347,1.618-4.225,3.093-8.5,4.549-12.766s2.823-8.541,4.081-12.82c.665-2.122,1.277-4.261,1.8-6.383l.827-3.182.719-2.931Z" transform="translate(-131.831 -260.88)" fill="#e4897b"/>
          <path id="Path_609" data-name="Path 609" d="M234.347,375.6c-7.192,1.8-12.3,31.627-12.3,31.627l19.94,13.557s19.131-30.045,13.557-37.992C249.756,374.5,244.919,372.921,234.347,375.6Z" transform="translate(-111.13 -268.218)" fill="#1c96a5"/>
          <path id="Path_610" data-name="Path 610" d="M234.347,375.6c-7.192,1.8-12.3,31.627-12.3,31.627l19.94,13.557s19.131-30.045,13.557-37.992C249.756,374.5,244.919,372.921,234.347,375.6Z" transform="translate(-111.13 -268.218)" opacity="0.6"/>
          <path id="Path_611" data-name="Path 611" d="M230.857,382.065l15.481,3.6L247.83,400.8a175.071,175.071,0,0,1-8.684,15.625l-12.1-8.217C227.567,401.25,228.879,386.758,230.857,382.065Z" transform="translate(-108.288 -263.86)" opacity="0.4"/>
          <path id="Path_612" data-name="Path 612" d="M244.024,407.778a.5.5,0,0,1-.27,0L222.5,393.394a.485.485,0,0,1-.126-.665.468.468,0,0,1,.647-.126l21.27,14.384a.421.421,0,0,1-.27.791Z" transform="translate(-110.99 -257.909)" fill="#fff"/>
          <path id="Path_613" data-name="Path 613" d="M230.632,377.006s-8.271,2.931,8.4,105.974h71.309c-1.2-29.02-1.241-46.928,12.586-106.478a209.934,209.934,0,0,0-30.278-3.992,226.088,226.088,0,0,0-32.364,0C246.4,373.788,230.632,377.006,230.632,377.006Z" transform="translate(-107.415 -269.625)" fill="#1c96a5"/>
          <path id="Path_614" data-name="Path 614" d="M230.632,377.006s-8.271,2.931,8.4,105.974h71.309c-1.2-29.02-1.241-46.928,12.586-106.478a209.934,209.934,0,0,0-30.278-3.992,226.088,226.088,0,0,0-32.364,0C246.4,373.788,230.632,377.006,230.632,377.006Z" transform="translate(-107.415 -269.625)" opacity="0.6"/>
          <path id="Path_615" data-name="Path 615" d="M391.918,464.3c-1.8-23.068-34.611-21.972-56.745-19.131l-3,.414c-.647-1.4-2.23-2.068-4.855-1.69-18.088-.45-42.523.324-42.523.324-11.507-2.427-33.73-4.028-50.614-4.117-16.02-.108-38.369,0-50.074,3.344-10.249,2.967-20.695,5.07-22.6,14.384s.234,31.573,18.663,35.96c20.443,4.909,45.22,6.617,67.029,10.482,0,0,2.265-7.785,5.861-18.322l.432.18h.162a83.427,83.427,0,0,0,18.555.719,7.8,7.8,0,0,1,8.235,6.473h0c1.546,9.278,10.878,20.156,54.156,18.879S393.788,487.365,391.918,464.3Z" transform="translate(-145.898 -230.858)" fill="#1c96a5"/>
          <path id="Path_616" data-name="Path 616" d="M391.918,464.3c-1.8-23.068-34.611-21.972-56.745-19.131l-3,.414c-.647-1.4-2.23-2.068-4.855-1.69-18.088-.45-42.523.324-42.523.324-11.507-2.427-33.73-4.028-50.614-4.117-16.02-.108-38.369,0-50.074,3.344-10.249,2.967-20.695,5.07-22.6,14.384s.234,31.573,18.663,35.96c20.443,4.909,45.22,6.617,67.029,10.482,0,0,2.265-7.785,5.861-18.322l.432.18h.162a83.427,83.427,0,0,0,18.555.719,7.8,7.8,0,0,1,8.235,6.473h0c1.546,9.278,10.878,20.156,54.156,18.879S393.788,487.365,391.918,464.3Z" transform="translate(-145.898 -230.858)" opacity="0.2"/>
          <path id="Path_617" data-name="Path 617" d="M308.411,440.261l.575,6.383c.252.5-.342,1.007-1.169,1.007H235.682c-.629,0-1.169-.324-1.2-.719l-.647-6.383c0-.449.5-.827,1.223-.827H307.26a1.276,1.276,0,0,1,1.151.539Z" transform="translate(-104.428 -231.059)" fill="#1c96a5"/>
          <path id="Path_618" data-name="Path 618" d="M308.411,440.261l.575,6.383c.252.5-.342,1.007-1.169,1.007H235.682c-.629,0-1.169-.324-1.2-.719l-.647-6.383c0-.449.5-.827,1.223-.827H307.26a1.276,1.276,0,0,1,1.151.539Z" transform="translate(-104.428 -231.059)" fill="#fff" opacity="0.7"/>
          <path id="Path_619" data-name="Path 619" d="M275.79,448.512h1.924c.4,0,.683-.2.665-.432l-.917-8.307c0-.234-.36-.432-.737-.432h-1.942c-.378,0-.683.2-.647.432l.9,8.307C275.071,448.314,275.394,448.512,275.79,448.512Z" transform="translate(-81.498 -231.273)" fill="#1c96a5"/>
          <path id="Path_620" data-name="Path 620" d="M239.089,448.512h1.924c.4,0,.683-.2.647-.432l-.9-8.307c0-.234-.36-.432-.755-.432h-1.924c-.4,0-.683.2-.665.432l.917,8.307C238.352,448.314,238.694,448.512,239.089,448.512Z" transform="translate(-102.387 -231.273)" fill="#1c96a5"/>
          <path id="Path_621" data-name="Path 621" d="M257.43,448.512h1.942c.378,0,.665-.2.647-.432l-.9-8.307c0-.234-.378-.432-.755-.432h-1.942c-.378,0-.665.2-.647.432l.917,8.307C256.711,448.314,257.053,448.512,257.43,448.512Z" transform="translate(-91.942 -231.273)" fill="#1c96a5"/>
          <g id="Group_11" data-name="Group 11" transform="translate(135.029 208.069)" opacity="0.6">
            <path id="Path_622" data-name="Path 622" d="M275.79,448.512h1.924c.4,0,.683-.2.665-.432l-.917-8.307c0-.234-.36-.432-.737-.432h-1.942c-.378,0-.683.2-.647.432l.9,8.307C275.071,448.314,275.394,448.512,275.79,448.512Z" transform="translate(-216.527 -439.342)"/>
            <path id="Path_623" data-name="Path 623" d="M239.089,448.512h1.924c.4,0,.683-.2.647-.432l-.9-8.307c0-.234-.36-.432-.755-.432h-1.924c-.4,0-.683.2-.665.432l.917,8.307C238.352,448.314,238.694,448.512,239.089,448.512Z" transform="translate(-237.416 -439.342)"/>
            <path id="Path_624" data-name="Path 624" d="M257.43,448.512h1.942c.378,0,.665-.2.647-.432l-.9-8.307c0-.234-.378-.432-.755-.432h-1.942c-.378,0-.665.2-.647.432l.917,8.307C256.711,448.314,257.053,448.512,257.43,448.512Z" transform="translate(-226.971 -439.342)"/>
          </g>
          <path id="Path_625" data-name="Path 625" d="M192.529,431.094l-12.46-12.586-1.636,17.782s9.35,6.311,15.8,2.913Z" transform="translate(-135.945 -243.126)" fill="#e4897b"/>
          <path id="Path_626" data-name="Path 626" d="M170.349,417.281l-.557,14.959,13.557,4.711,1.636-17.782Z" transform="translate(-140.862 -243.824)" fill="#e4897b"/>
          <path id="Path_627" data-name="Path 627" d="M278.11,392.471l9.188,7.821c-1.96,10.428-3.272,19.113-4.117,26.826C281.454,419.369,277.085,398.386,278.11,392.471Z" transform="translate(-79.323 -257.939)" opacity="0.6"/>
          <path id="Path_628" data-name="Path 628" d="M315.292,388.475c-5.574-9.727-11.076-21.486-5.844-37.92,6.005-18.879,2.733-28.211-1.061-32.724-3.434-4.081-8.846-5.915-15.283-5.232a11.975,11.975,0,0,0-9.1,4.351s-27.8,2.373-45.6,22.925c5.754,16.739-2.481,37.093-13.071,44.824,33.748,28.606,69.924,19.652,81.755,14.384,5.682-2.553,7.7-6.1,6.455-11.813l.971,1.708a.432.432,0,0,0,.378.234.5.5,0,0,0,.234,0,.45.45,0,0,0,.162-.737ZM307.7,318.353a17.782,17.782,0,0,1,3.6,8.091,22.134,22.134,0,0,0-12.694-12.928,14.384,14.384,0,0,1,9.1,4.963Zm-.45,30.872a43.456,43.456,0,0,0,3.776-8.666,77.04,77.04,0,0,1-2.445,9.673,40.329,40.329,0,0,0-.989,22.547c-3.021-7.552-4.513-16.056-.342-23.5Z" transform="translate(-109.259 -303.461)" fill="#263238"/>
          <path id="Path_629" data-name="Path 629" d="M274.506,347.888a2.265,2.265,0,1,1-2.265-2.266A2.266,2.266,0,0,1,274.506,347.888Z" transform="translate(-83.864 -284.593)" fill="#fff"/>
          <path id="Path_630" data-name="Path 630" d="M261.911,389.04c-3.4,0-13.719,0-17.243-7.318a11.382,11.382,0,0,1-.2-8.882.478.478,0,0,1,.9.324,10.482,10.482,0,0,0,.144,8.145c3.272,6.8,13.143,6.8,16.4,6.8,23.086,0,27.078-13.845,27.24-14.384l.288-1.1a.486.486,0,0,1,.575-.342.468.468,0,0,1,.342.593l-.288,1.079C289.888,374.548,285.7,389.04,261.911,389.04Z" transform="translate(-98.833 -269.432)" fill="#fff"/>
          <path id="Path_631" data-name="Path 631" d="M278.665,349.06c-2.032,10.428-4.081,29.505,3.218,36.463,0,0-2.859,10.572-22.205,10.572-18.627,0-10.177-10.572-10.177-10.572,11.615-2.769,11.309-11.4,9.3-19.49Z" transform="translate(-96.6 -282.637)" fill="#e4897b"/>
          <path id="Path_632" data-name="Path 632" d="M266.51,353.472l-11.777,10a33.968,33.968,0,0,1,1.007,5.736c4.441-.629,10.536-5.5,11-10.159a15.68,15.68,0,0,0-.234-5.574Z" transform="translate(-92.535 -280.127)" fill="#ce6f64"/>
          <path id="Path_633" data-name="Path 633" d="M285.67,339.288c2.014,17.315,3.236,24.6-3.83,34.935-10.644,15.553-32.364,14.222-39.556-2.122-6.437-14.726-8.648-40.563,6.9-50.344a23.752,23.752,0,0,1,36.481,17.531Z" transform="translate(-102.4 -300.321)" fill="#e4897b"/>
          <path id="Path_634" data-name="Path 634" d="M274.441,330.858c-3.938,7.588-32.652,16.7-46.352,15.858a21.341,21.341,0,0,0,5.394-3.9c0-5.915,0-18.825,8.846-26.179a41.031,41.031,0,0,1,38.531-8.181,16.613,16.613,0,0,1,11.165,10.878l.971,2.985Z" transform="translate(-107.694 -306.724)" fill="#263238"/>
          <path id="Path_635" data-name="Path 635" d="M264.426,318.393l-7.57,4.279s-5,26.736,19.508,26.053C276.275,348.725,276.041,322.295,264.426,318.393Z" transform="translate(-91.566 -300.085)" fill="#263238"/>
          <path id="Path_636" data-name="Path 636" d="M277.105,341.684a13.251,13.251,0,0,1-4.5,8.63c-3.4,2.877-6.778.324-7.192-3.812-.414-3.74.827-9.727,4.909-11S277.483,337.6,277.105,341.684Z" transform="translate(-86.499 -290.508)" fill="#e4897b"/>
          <path id="Path_637" data-name="Path 637" d="M217.573,486.614l5.07-19.059a1.384,1.384,0,0,1,1.51-1.061l15.661,1.8a2.8,2.8,0,0,1,2.3,3.6c-1.888,6.617-3.129,9.709-5.394,18.088-1.366,5.16-3.6,15.966-5.556,23.086s-8.99,5.628-8.99,2.5c.683-14.06-1.8-20.335-4.441-25.819A4.567,4.567,0,0,1,217.573,486.614Z" transform="translate(-113.792 -215.83)" fill="#263238"/>
          <path id="Path_638" data-name="Path 638" d="M251.325,491.664l5.07-19.059a1.4,1.4,0,0,0-.791-1.672l-14.51-6.185a2.823,2.823,0,0,0-3.74,1.906c-1.654,6.689-2.122,10-4.351,18.376-1.366,5.16-4.747,15.679-6.653,22.8s5.052,9.386,6.473,6.581c6.4-12.586,11.741-16.721,16.7-20.192A4.675,4.675,0,0,0,251.325,491.664Z" transform="translate(-108.87 -216.925)" fill="#263238"/>
          <path id="Path_639" data-name="Path 639" d="M253.406,338.392c.252,1.4-.288,2.661-1.2,2.823s-1.8-.845-2.1-2.229.288-2.661,1.2-2.823S253.155,336.99,253.406,338.392Z" transform="translate(-95.218 -289.985)" fill="#263238"/>
          <path id="Path_640" data-name="Path 640" d="M243.349,340.191c.252,1.384-.288,2.643-1.187,2.823s-1.8-.845-2.1-2.229.288-2.661,1.187-2.823S243.116,338.789,243.349,340.191Z" transform="translate(-100.93 -288.961)" fill="#263238"/>
          <path id="Path_641" data-name="Path 641" d="M242.365,338.086l-3.6-.36S241.017,340.064,242.365,338.086Z" transform="translate(-101.618 -289.085)" fill="#263238"/>
          <path id="Path_642" data-name="Path 642" d="M246.26,340.431a37.883,37.883,0,0,1-3.308,9.781,6.113,6.113,0,0,0,5.142,0Z" transform="translate(-99.238 -287.547)" fill="#de5753"/>
          <path id="Path_643" data-name="Path 643" d="M250.865,351.509a.256.256,0,1,1-.09-.5A11.813,11.813,0,0,0,257,345.144a.252.252,0,0,1,.342-.144.27.27,0,0,1,.144.36,12.173,12.173,0,0,1-6.527,6.149Z" transform="translate(-94.907 -284.96)" fill="#263238"/>
          <path id="Path_644" data-name="Path 644" d="M255.985,332.959a.665.665,0,0,1-.36-.126,6.85,6.85,0,0,0-6.077-1.618.539.539,0,0,1-.665-.36.557.557,0,0,1,.36-.665,8,8,0,0,1,7.084,1.8.624.624,0,0,1-.342.971Z" transform="translate(-95.873 -293.488)" fill="#263238"/>
          <path id="Path_645" data-name="Path 645" d="M236.587,337.388a.576.576,0,0,1-.306-.108.539.539,0,0,1-.126-.737,7.947,7.947,0,0,1,6.383-3.6.539.539,0,0,1,.521.539.611.611,0,0,1-.557.521,6.832,6.832,0,0,0-5.394,3.092A.557.557,0,0,1,236.587,337.388Z" transform="translate(-103.158 -291.804)" fill="#263238"/>
          <path id="Path_646" data-name="Path 646" d="M252.4,336.287l-3.6-.36S251.074,338.228,252.4,336.287Z" transform="translate(-95.906 -290.109)" fill="#263238"/>
          <path id="Path_647" data-name="Path 647" d="M311.836,387.348c1.8,5.25,3.362,10.41,4.909,15.661s2.823,10.554,4.081,15.912,2.337,10.788,3.147,16.434c.414,2.8.737,5.664.9,8.684,0,1.51.108,3.057,0,4.675v1.924l-.09.935a18.289,18.289,0,0,1-.773,3.6,23.968,23.968,0,0,1-6.527,9.853,47.556,47.556,0,0,1-7.641,5.789,93.689,93.689,0,0,1-15.661,7.426,173.118,173.118,0,0,1-32.022,8.469l-2.176-8.81a275.1,275.1,0,0,0,28.768-12.136,88.512,88.512,0,0,0,12.586-7.588,30.261,30.261,0,0,0,4.837-4.261,8.721,8.721,0,0,0,2.122-3.6,37.582,37.582,0,0,0-.324-4.891c-.288-2.319-.719-4.765-1.2-7.192-.953-4.927-2.229-9.961-3.6-14.977s-2.787-10.069-4.279-15.085-3.057-10.123-4.567-15.013Z" transform="translate(-89.549 -260.854)" fill="#e4897b"/>
          <path id="Path_648" data-name="Path 648" d="M268.318,446.919l-16.667-4.207,7.929,15.984s11.255.485,14.977-5.79Z" transform="translate(-94.289 -229.356)" fill="#e4897b"/>
          <path id="Path_649" data-name="Path 649" d="M243.078,448.788l7.372,13.018,14.024-3.11-7.947-15.984Z" transform="translate(-99.166 -229.356)" fill="#e4897b"/>
          <path id="Path_650" data-name="Path 650" d="M222.648,491.73l6.581-24.687-8.666-3.578-12.208,26.5Z" transform="translate(-118.922 -217.548)" fill="#1c96a5"/>
          <path id="Path_651" data-name="Path 651" d="M222.648,491.73l6.581-24.687-8.666-3.578-12.208,26.5Z" transform="translate(-118.922 -217.548)" fill="#fff" opacity="0.7"/>
          <path id="Path_652" data-name="Path 652" d="M241.634,490.208l4.135-23.122,10.1-.378-.791,29.433Z" transform="translate(-99.988 -215.703)" fill="#1c96a5"/>
          <path id="Path_653" data-name="Path 653" d="M241.634,490.208l4.135-23.122,10.1-.378-.791,29.433Z" transform="translate(-99.988 -215.703)" fill="#fff" opacity="0.7"/>
          <path id="Path_654" data-name="Path 654" d="M216.786,490.072a2.263,2.263,0,0,1-.881-.18,1.223,1.223,0,0,1-.809-.881c-.557-2.319,4.657-8.109,5.25-8.774a.306.306,0,0,1,.324,0,.288.288,0,0,1,.18.306c-.18,2.859-.791,7.875-2.895,9.242a2.122,2.122,0,0,1-1.169.288ZM220.2,481.3c-1.8,2.05-4.909,6.059-4.531,7.588a.647.647,0,0,0,.45.467,1.6,1.6,0,0,0,1.51-.144c1.277-.827,2.212-3.758,2.571-7.911Z" transform="translate(-115.11 -208.033)" fill="#1c96a5"/>
          <path id="Path_655" data-name="Path 655" d="M214.67,484.813a1.8,1.8,0,0,1-.719-.126c-.4-.18-.845-.629-.665-1.69a2.841,2.841,0,0,1,1.241-1.96c2.3-1.636,6.922-.827,7.192-.791a.288.288,0,0,1,.216.2.324.324,0,0,1,0,.288C220.549,482.278,216.7,484.813,214.67,484.813Zm4.153-4.207a7.193,7.193,0,0,0-3.956.917,2.283,2.283,0,0,0-1.007,1.564c-.126.845.216,1.007.324,1.061,1.2.539,5.052-1.564,6.814-3.4A19.477,19.477,0,0,0,218.823,480.606Z" transform="translate(-116.139 -208.132)" fill="#1c96a5"/>
          <path id="Path_656" data-name="Path 656" d="M241.266,492.843h-.252a2.176,2.176,0,0,1-1.672-1.187c-1.151-2.229.809-6.886,2.068-9.457a.306.306,0,0,1,.557,0c.2.863,1.8,8.487.18,10.213a1.169,1.169,0,0,1-.881.432Zm.306-9.619c-.953,2.086-2.661,6.293-1.708,8.145a1.618,1.618,0,0,0,1.241.881.647.647,0,0,0,.629-.2c1.079-1.133.36-6.149-.126-8.828Z" transform="translate(-101.49 -206.992)" fill="#1c96a5"/>
          <path id="Path_657" data-name="Path 657" d="M245.505,489.685H245.4c-1.96-.2-4.495-5.106-4.873-7.336a.252.252,0,0,1,.108-.27.27.27,0,0,1,.288,0c.18,0,4.6,1.654,5.79,4.207a2.967,2.967,0,0,1,.09,2.319C246.458,489.47,245.937,489.685,245.505,489.685Zm-4.3-6.976c.647,2.463,2.931,6.185,4.243,6.311.126,0,.5,0,.791-.737a2.266,2.266,0,0,0,0-1.8C245.308,484.633,242.395,483.267,241.208,482.709Z" transform="translate(-100.623 -206.981)" fill="#1c96a5"/>
          <path id="Path_658" data-name="Path 658" d="M295.918,374.988c7.192,2.176,17.98,30.206,17.98,30.206l-27.707,19.778s-12.46-23.967-9.457-33.209C279.88,382.18,287.683,372.507,295.918,374.988Z" transform="translate(-80.284 -268.11)" fill="#1c96a5"/>
          <path id="Path_659" data-name="Path 659" d="M295.918,374.988c7.192,2.176,17.98,30.206,17.98,30.206l-27.707,19.778s-12.46-23.967-9.457-33.209C279.88,382.18,287.683,372.507,295.918,374.988Z" transform="translate(-80.284 -268.11)" opacity="0.6"/>
          <path id="Path_660" data-name="Path 660" d="M281.708,412.449a.485.485,0,0,1-.288-.863l27.941-19.976a.45.45,0,0,1,.647.108.468.468,0,0,1-.108.665l-27.923,19.976a.413.413,0,0,1-.27.09Z" transform="translate(-77.455 -258.482)" fill="#fff"/>
          <path id="Path_661" data-name="Path 661" d="M153.8,411.3H278.945l18.142,73.9H171.946Z" transform="translate(-149.957 -247.227)" fill="#1c96a5"/>
          <path id="Path_662" data-name="Path 662" d="M194.213,449.622l76.541,17.854L319.875,453.7l-.5-4.081Z" transform="translate(-126.967 -225.424)" fill="#1c96a5"/>
          <path id="Path_663" data-name="Path 663" d="M151.352,411.3H276.493l18.124,73.9H169.494Z" transform="translate(-151.352 -247.227)" fill="#1c96a5"/>
          <path id="Path_664" data-name="Path 664" d="M151.352,411.3H276.493l18.124,73.9H169.494Z" transform="translate(-151.352 -247.227)" fill="#fff" opacity="0.5"/>
          <path id="Path_665" data-name="Path 665" d="M162.915,458.4l.5,4.081H288.56l-.5-4.081Z" transform="translate(-144.774 -220.43)" fill="#1c96a5"/>
          <path id="Path_666" data-name="Path 666" d="M162.915,458.4l.5,4.081H288.56l-.5-4.081Z" transform="translate(-144.774 -220.43)" fill="#fff" opacity="0.5"/>
        </g>
      </g>
    </g>
    <line id="Line_1" data-name="Line 1" x2="899" y2="885" transform="translate(0 14)" fill="none" stroke="#fff" stroke-width="1"/>
    <line id="Line_2" data-name="Line 2" y1="899" x2="899" fill="none" stroke="#fff" stroke-width="1"/>
  </g>
</svg>
